<svg xmlns="http://www.w3.org/2000/svg" width="960" height="240" viewBox="0 0 960 240" role="img" aria-labelledby="title description">
  <title id="title">mathlib-fp</title>
  <desc id="description">Logo for the mathematics and engineering library for Free Pascal.</desc>
  <defs>
    <linearGradient id="panel" x1="0" y1="0" x2="1" y2="1">
      <stop offset="0" stop-color="#111c33"/>
      <stop offset="1" stop-color="#080e1b"/>
    </linearGradient>
    <linearGradient id="mark" x1="0" y1="0" x2="1" y2="1">
      <stop offset="0" stop-color="#38bdf8"/>
      <stop offset="1" stop-color="#2563eb"/>
    </linearGradient>
  </defs>

  <rect x="1" y="1" width="958" height="238" rx="28" fill="url(#panel)" stroke="#263653" stroke-width="2"/>

  <g transform="translate(42 38)">
    <rect width="164" height="164" rx="32" fill="url(#mark)"/>
    <path d="M35 126H132M50 143V31" fill="none" stroke="#dbeafe" stroke-width="5" stroke-linecap="round" opacity=".82"/>
    <path d="M35 119C51 119 58 105 68 86C80 64 91 56 105 67C117 76 120 45 133 38" fill="none" stroke="#fff" stroke-width="8" stroke-linecap="round" stroke-linejoin="round"/>
    <circle cx="68" cy="86" r="6" fill="#0f2f68"/>
    <circle cx="105" cy="67" r="6" fill="#0f2f68"/>
    <circle cx="133" cy="38" r="6" fill="#fff"/>
  </g>

  <g font-family="Inter, Segoe UI, Helvetica, Arial, sans-serif">
    <text x="244" y="112" fill="#f8fafc" font-size="66" font-weight="700" letter-spacing="-2">mathlib<tspan fill="#38bdf8">-fp</tspan></text>
    <text x="248" y="153" fill="#a8b5ca" font-size="19" font-weight="600" letter-spacing="3">MATHEMATICS &#183; ENGINEERING &#183; FREE PASCAL</text>
  </g>

  <path d="M246 181H874" stroke="#263653" stroke-width="2"/>
  <path d="M246 181H380" stroke="#38bdf8" stroke-width="3" stroke-linecap="round"/>
</svg>
